 <svg xmlns="http://www.w3.org/2000/svg" xmlns:xlink="http://www.w3.org/1999/xlink" width="500" zoomAndPan="magnify" viewBox="0 0 375 374.999991" height="500" preserveAspectRatio="xMidYMid meet" version="1.0"><rect x="-37.5" width="450" fill="#ffffff" y="-37.499999" height="449.999989" fill-opacity="1"/><path fill="#000000" d="M 111.484375 332.222656 C 111.484375 332.222656 109.582031 332.652344 107.582031 332.589844 C 105.625 332.53125 101.347656 331.96875 102.324219 331.972656 C 103.296875 331.980469 104.527344 330.230469 104.527344 330.230469 L 102.824219 329.976562 L 102.78125 328.613281 L 105.511719 328.582031 L 124.511719 287.296875 C 124.511719 287.296875 126.851562 287.261719 126.898438 287.066406 C 124.5625 287.003906 123 287.140625 122.808594 286.847656 C 122.957031 286.457031 143.375 241.152344 143.933594 240.164062 C 144.179688 239.726562 146.175781 239.980469 146.175781 239.980469 L 147.996094 228.289062 L 146.4375 228.234375 C 146.4375 228.234375 150.039062 203.632812 149.605469 202.949219 C 149.171875 202.261719 122.703125 203.429688 104.777344 202.152344 C 86.851562 200.878906 77.214844 198.824219 73.757812 197.929688 C 70.535156 197.089844 69.8125 197.757812 68.4375 199.3125 C 67.066406 200.863281 43.6875 232.078125 41.675781 234.699219 C 39.699219 237.273438 38.800781 237.316406 37.617188 237.308594 C 36.058594 237.300781 25.773438 237.289062 25.773438 237.289062 L 36.648438 193.714844 C 36.648438 193.714844 32.316406 193.445312 31.683594 192.808594 C 31.054688 192.171875 31.304688 190.855469 31.304688 190.855469 C 31.304688 190.855469 22.296875 189.925781 21.714844 189.4375 C 21.132812 188.945312 20.84375 188.117188 20.84375 188.117188 C 20.84375 188.117188 11.558594 186.117188 11.320312 185.222656 L 11.308594 185.222656 C 11.308594 185.214844 11.3125 185.207031 11.3125 185.203125 C 11.3125 185.195312 11.308594 185.1875 11.308594 185.183594 L 11.320312 185.183594 C 11.570312 184.292969 20.878906 182.398438 20.878906 182.398438 C 20.878906 182.398438 21.175781 181.570312 21.761719 181.085938 C 22.351562 180.601562 31.371094 179.777344 31.371094 179.777344 C 31.371094 179.777344 31.132812 178.460938 31.769531 177.828125 C 32.410156 177.199219 36.746094 176.980469 36.746094 176.980469 L 26.375 133.285156 C 26.375 133.285156 36.65625 133.390625 38.214844 133.402344 C 39.402344 133.410156 40.296875 133.460938 42.242188 136.058594 C 44.226562 138.699219 67.242188 170.183594 68.597656 171.75 C 69.953125 173.320312 70.667969 173.996094 73.902344 173.195312 C 77.367188 172.339844 87.027344 170.394531 104.964844 169.328125 C 122.90625 168.261719 149.359375 169.730469 149.800781 169.050781 C 150.242188 168.371094 146.925781 143.730469 146.925781 143.730469 L 148.484375 143.691406 L 146.796875 131.980469 C 146.796875 131.980469 144.800781 132.210938 144.558594 131.769531 C 144.011719 130.773438 124.113281 85.238281 123.96875 84.847656 C 124.167969 84.554688 125.726562 84.710938 128.0625 84.675781 C 128.015625 84.480469 125.679688 84.417969 125.679688 84.417969 L 107.15625 42.917969 L 104.425781 42.851562 L 104.484375 41.488281 L 106.1875 41.253906 C 106.1875 41.253906 104.980469 39.492188 104.007812 39.488281 C 103.035156 39.480469 107.316406 38.96875 109.273438 38.933594 C 111.269531 38.894531 113.167969 39.347656 113.167969 39.347656 C 113.167969 39.347656 112.738281 37.929688 114.589844 38.085938 C 115.769531 38.1875 121.144531 41.878906 121.144531 41.878906 C 121.144531 41.878906 121.953125 42.140625 122.527344 42.101562 C 123.191406 42.054688 123.613281 42.867188 123.992188 43.296875 C 124.210938 43.546875 125.417969 43.277344 125.417969 43.277344 C 125.417969 43.277344 137.09375 57.0625 155.375 80.933594 C 173.625 104.769531 196.007812 132.980469 196.007812 132.980469 C 196.007812 132.980469 197.308594 132.988281 199.128906 132.738281 C 200.949219 132.488281 201.730469 132.296875 201.730469 132.296875 C 201.730469 132.296875 202.195312 130.871094 203.367188 130.488281 C 204.242188 130.203125 210.585938 129.488281 216.300781 129.652344 C 222.019531 129.816406 225.003906 130.15625 225.914062 130.550781 C 226.820312 130.945312 227.214844 132.269531 227.453125 133.941406 C 227.703125 135.699219 227.5 142.507812 227.265625 144.148438 C 227.039062 145.703125 226.792969 146.679688 224.582031 146.925781 C 222.375 147.171875 214.769531 147.195312 211.652344 146.980469 C 209.433594 146.832031 206.914062 146.238281 206.78125 146.5625 C 206.652344 146.886719 212.140625 152.574219 214.332031 155.707031 C 216.523438 158.839844 221.105469 164.199219 222.53125 164.855469 C 223.957031 165.515625 224.152344 165.582031 222.847656 165.964844 C 221.546875 166.34375 220.25 166.273438 219.34375 165.746094 C 218.4375 165.222656 217.265625 164.957031 216.746094 165.472656 C 216.546875 165.667969 217.839844 167.234375 218.617188 167.628906 C 219.394531 168.023438 220.890625 167.640625 221.539062 167.90625 C 222.1875 168.171875 224.066406 169.199219 225.625 169.164062 C 234.917969 168.957031 248.824219 168.722656 279.234375 168.824219 C 311.773438 168.929688 321.492188 169.308594 338.855469 173.523438 C 354.613281 177.34375 357.71875 180.167969 359.988281 181.617188 C 362.085938 182.957031 363.703125 185.960938 363.722656 187.21875 L 363.726562 187.21875 C 363.726562 187.222656 363.722656 187.230469 363.722656 187.234375 C 363.722656 187.238281 363.726562 187.246094 363.726562 187.253906 L 363.722656 187.253906 C 363.6875 188.507812 362.035156 191.492188 359.921875 192.808594 C 357.640625 194.230469 354.5 197.015625 338.699219 200.660156 C 321.289062 204.671875 311.566406 204.9375 279.027344 204.671875 C 248.621094 204.421875 234.714844 204.023438 225.425781 203.710938 C 223.867188 203.660156 221.976562 204.667969 221.328125 204.921875 C 220.675781 205.179688 219.183594 204.78125 218.402344 205.167969 C 217.621094 205.550781 216.308594 207.105469 216.503906 207.300781 C 217.019531 207.824219 218.191406 207.570312 219.105469 207.054688 C 220.015625 206.539062 221.316406 206.480469 222.613281 206.878906 C 223.910156 207.277344 223.714844 207.339844 222.28125 207.984375 C 220.851562 208.625 216.207031 213.929688 213.980469 217.039062 C 211.753906 220.144531 206.195312 225.769531 206.324219 226.09375 C 206.453125 226.421875 208.980469 225.859375 211.199219 225.734375 C 214.320312 225.554688 221.921875 225.664062 224.128906 225.9375 C 226.335938 226.210938 226.566406 227.1875 226.777344 228.746094 C 226.996094 230.390625 227.117188 237.199219 226.847656 238.953125 C 226.589844 240.625 226.179688 241.941406 225.269531 242.324219 C 224.359375 242.710938 221.367188 243.019531 215.648438 243.117188 C 209.929688 243.210938 203.59375 242.425781 202.722656 242.128906 C 201.554688 241.734375 201.109375 240.300781 201.109375 240.300781 C 201.109375 240.300781 200.332031 240.101562 198.511719 239.832031 C 196.695312 239.558594 195.394531 239.550781 195.394531 239.550781 C 195.394531 239.550781 172.6875 267.503906 154.164062 291.125 C 135.609375 314.785156 123.773438 328.433594 123.773438 328.433594 C 123.773438 328.433594 122.570312 328.152344 122.351562 328.398438 C 121.96875 328.824219 121.535156 329.632812 120.871094 329.578125 C 120.300781 329.53125 119.488281 329.785156 119.488281 329.785156 C 119.488281 329.785156 114.070312 333.414062 112.890625 333.5 C 111.035156 333.636719 111.484375 332.222656 111.484375 332.222656 Z M 126.789062 47.945312 L 124.699219 45.183594 L 124.390625 45.421875 L 126.496094 48.203125 Z M 130.980469 53.480469 L 127.027344 48.257812 L 126.734375 48.515625 L 130.671875 53.71875 Z M 135.179688 59.027344 L 131.21875 53.792969 L 130.90625 54.027344 L 134.84375 59.234375 Z M 140.46875 66.019531 L 135.417969 59.339844 L 135.082031 59.546875 L 140.152344 66.246094 Z M 145.347656 72.460938 L 140.707031 66.328125 L 140.390625 66.554688 L 145.039062 72.695312 Z M 150.277344 78.976562 L 145.582031 72.773438 L 145.269531 73.007812 L 149.957031 79.199219 Z M 155.378906 85.714844 L 150.515625 79.289062 L 150.195312 79.511719 L 155.089844 85.980469 Z M 160.527344 92.515625 L 155.613281 86.027344 L 155.328125 86.289062 L 160.203125 92.734375 Z M 165.628906 99.257812 L 160.761719 92.824219 L 160.4375 93.046875 L 165.292969 99.453125 Z M 170.695312 105.949219 L 165.867188 99.570312 L 165.527344 99.765625 L 170.375 106.171875 Z M 175.566406 112.382812 L 170.933594 106.261719 L 170.609375 106.480469 L 175.253906 112.617188 Z M 180.429688 118.8125 L 175.800781 112.695312 L 175.488281 112.929688 L 180.09375 119.011719 Z M 186.164062 126.386719 L 180.667969 119.125 L 180.328125 119.324219 L 185.796875 126.550781 Z M 187.660156 128.367188 L 186.402344 126.703125 L 186.039062 126.867188 L 187.289062 128.515625 Z M 192.355469 134.570312 L 187.90625 128.6875 L 187.53125 128.839844 L 192.046875 134.804688 Z M 191.761719 237.910156 L 191.453125 237.667969 L 186.871094 243.582031 L 187.242188 243.738281 Z M 186.996094 244.058594 L 186.625 243.902344 L 185.355469 245.539062 L 185.71875 245.707031 Z M 185.476562 246.023438 L 185.113281 245.851562 L 179.558594 253.015625 L 179.894531 253.21875 Z M 179.652344 253.527344 L 179.316406 253.324219 L 174.644531 259.355469 L 174.953125 259.589844 Z M 174.714844 259.898438 L 174.40625 259.664062 L 169.695312 265.742188 L 170.011719 265.964844 Z M 169.773438 266.277344 L 169.453125 266.054688 L 164.53125 272.398438 L 164.871094 272.601562 Z M 164.628906 272.910156 L 164.292969 272.707031 L 159.367188 279.0625 L 159.6875 279.285156 Z M 159.449219 279.59375 L 159.128906 279.371094 L 154.179688 285.757812 L 154.464844 286.023438 Z M 154.222656 286.335938 L 153.9375 286.066406 L 148.96875 292.480469 L 149.285156 292.703125 Z M 149.046875 293.011719 L 148.730469 292.785156 L 143.972656 298.925781 L 144.28125 299.160156 Z M 144.039062 299.46875 L 143.730469 299.234375 L 139.011719 305.320312 L 139.328125 305.550781 Z M 139.089844 305.859375 L 138.777344 305.628906 L 133.628906 312.269531 L 133.960938 312.480469 Z M 133.71875 312.785156 L 133.386719 312.578125 L 129.390625 317.734375 L 129.695312 317.976562 Z M 129.457031 318.285156 L 129.148438 318.042969 L 125.152344 323.203125 L 125.441406 323.464844 Z M 125.203125 323.773438 L 124.914062 323.511719 L 122.773438 326.269531 L 123.082031 326.507812 Z M 125.203125 323.773438 " fill-opacity="1" fill-rule="evenodd"/></svg>